<svg width="24" height="24" viewBox="0 0 24 24" fill="none" xmlns="http://www.w3.org/2000/svg">
<path d="M5.616 21C5.15533 21 4.771 20.846 4.463 20.538C4.155 20.23 4.00067 19.8457 4 19.385V6.61502C4 6.15502 4.15433 5.77102 4.463 5.46302C4.77167 5.15502 5.156 5.00069 5.616 5.00002H7.385V2.77002H8.462V5.00002H15.616V2.77002H16.616V5.00002H18.385C18.845 5.00002 19.2293 5.15435 19.538 5.46302C19.8467 5.77169 20.0007 6.15602 20 6.61602V11.367C20 11.5097 19.9523 11.6287 19.857 11.724C19.7617 11.8194 19.6427 11.867 19.5 11.867C19.3573 11.867 19.2383 11.8194 19.143 11.724C19.0477 11.6287 19 11.5097 19 11.367V10.615H5V19.385C5 19.5384 5.064 19.6794 5.192 19.808C5.32 19.9367 5.461 20.0007 5.615 20H12.05C12.1927 20 12.3117 20.0477 12.407 20.143C12.5023 20.2384 12.55 20.3574 12.55 20.5C12.55 20.6427 12.5023 20.7617 12.407 20.857C12.3117 20.9524 12.1927 21 12.05 21H5.616ZM18.385 22C17.271 22 16.3257 21.612 15.549 20.836C14.773 20.0587 14.385 19.1134 14.385 18C14.385 16.8867 14.773 15.9417 15.549 15.165C16.325 14.3884 17.27 14 18.384 14C19.498 14 20.4433 14.3884 21.22 15.165C21.9967 15.9417 22.385 16.8867 22.385 18C22.385 19.1134 21.9967 20.0587 21.22 20.836C20.4433 21.6134 19.4983 22.0014 18.385 22ZM20.04 20.202L20.586 19.656L18.769 17.838V15.116H18V18.162L20.04 20.202Z" fill="black"/>
</svg>
