<svg width="24" height="24" viewBox="0 0 24 24" fill="none" xmlns="http://www.w3.org/2000/svg">
<path d="M4.74749 13.8375V20.28C4.74749 20.5875 5.00249 20.8425 5.30999 20.8425H16.6575C16.965 20.8425 17.22 20.5875 17.22 20.28V13.83C18.6525 13.2675 19.6725 11.88 19.6725 10.2525C19.6725 8.12998 17.9475 6.40498 15.825 6.40498C15.405 6.40498 14.9775 6.47998 14.5725 6.61498C13.6725 5.21248 12.1425 4.35748 10.455 4.35748C8.76749 4.35748 7.38749 5.12248 6.47249 6.41998C4.17749 6.21748 2.30249 8.02498 2.30249 10.2525C2.30249 11.88 3.32249 13.2675 4.75499 13.83L4.74749 13.8375ZM5.87249 19.7175V18.315H16.095V19.7175H5.87249ZM16.095 14.1075V17.19H5.87249V14.1075H16.095ZM6.14249 7.53748C6.27749 7.53748 6.41249 7.55248 6.56249 7.57498C6.56249 7.57498 6.56999 7.57498 6.57749 7.57498C7.86749 7.82248 8.80499 8.94748 8.80499 10.2525C8.80499 10.56 9.05999 10.815 9.36749 10.815C9.67499 10.815 9.92999 10.56 9.92999 10.2525C9.92999 8.71498 9.00749 7.36498 7.64999 6.74998C8.35499 5.94748 9.36749 5.47498 10.455 5.47498C11.8875 5.47498 13.185 6.27748 13.83 7.56748C13.8975 7.70248 14.0175 7.79998 14.1525 7.85248C14.295 7.89748 14.445 7.88998 14.58 7.82248C14.97 7.62748 15.3975 7.52248 15.8175 7.52248C17.3175 7.52248 18.54 8.74498 18.54 10.245C18.54 11.745 17.3175 12.9675 15.8175 12.9675H6.14249C4.64249 12.9675 3.41999 11.745 3.41999 10.245C3.41999 8.74498 4.64249 7.52248 6.14249 7.52248V7.53748Z" fill="black"/>
</svg>
