<svg width="24" height="24" viewBox="0 0 24 24" fill="none" xmlns="http://www.w3.org/2000/svg">
<path d="M13.62 8.38201L15.586 6.41501C15.3534 6.18248 15.1818 5.89618 15.0862 5.58147C14.9907 5.26676 14.9743 4.93335 15.0384 4.61076C15.1025 4.28818 15.2451 3.98638 15.4537 3.73211C15.6623 3.47783 15.9304 3.27892 16.2342 3.15299C16.5381 3.02706 16.8683 2.978 17.1956 3.01016C17.5229 3.04232 17.8372 3.15471 18.1107 3.33736C18.3842 3.52001 18.6085 3.7673 18.7636 4.05731C18.9187 4.34733 18.9999 4.67112 19 5.00001C19.329 4.99977 19.6529 5.08069 19.9432 5.23559C20.2334 5.3905 20.4809 5.6146 20.6638 5.88804C20.8467 6.16148 20.9594 6.47582 20.9917 6.8032C21.0241 7.13058 20.9752 7.46089 20.8494 7.76485C20.7236 8.06882 20.5248 8.33706 20.2705 8.54581C20.0162 8.75455 19.7144 8.89735 19.3917 8.96155C19.0691 9.02575 18.7356 9.00937 18.4208 8.91386C18.106 8.81835 17.8196 8.64666 17.587 8.41401L15.767 10.235M7.50001 16L8.50001 17M5.90401 18.596C8.63701 21.33 11.804 22.596 12.974 21.425C14.146 20.253 12.88 17.087 10.146 14.354C7.41301 11.62 4.24601 10.354 3.07601 11.525C1.90401 12.697 3.17001 15.863 5.90401 18.596Z" stroke="black" stroke-linecap="round" stroke-linejoin="round"/>
<path d="M12.9749 21.425C16.8799 17.519 17.8299 12.137 15.0959 9.404C12.3629 6.67 6.98093 7.62 3.07593 11.525" stroke="black" stroke-linecap="round" stroke-linejoin="round"/>
</svg>
