<svg width="24" height="24" viewBox="0 0 24 24" fill="none" xmlns="http://www.w3.org/2000/svg">
<path d="M17.75 7C17.75 6.80109 17.671 6.61032 17.5303 6.46967C17.3897 6.32902 17.1989 6.25 17 6.25C16.8011 6.25 16.6103 6.32902 16.4697 6.46967C16.329 6.61032 16.25 6.80109 16.25 7V9C16.25 9.19891 16.329 9.38968 16.4697 9.53033C16.6103 9.67098 16.8011 9.75 17 9.75C17.1989 9.75 17.3897 9.67098 17.5303 9.53033C17.671 9.38968 17.75 9.19891 17.75 9V7ZM17.75 14C17.75 13.8011 17.671 13.6103 17.5303 13.4697C17.3897 13.329 17.1989 13.25 17 13.25C16.8011 13.25 16.6103 13.329 16.4697 13.4697C16.329 13.6103 16.25 13.8011 16.25 14V16C16.25 16.1989 16.329 16.3897 16.4697 16.5303C16.6103 16.671 16.8011 16.75 17 16.75C17.1989 16.75 17.3897 16.671 17.5303 16.5303C17.671 16.3897 17.75 16.1989 17.75 16V14Z" fill="black"/>
<path fill-rule="evenodd" clip-rule="evenodd" d="M12.056 1.25H11.944C10.106 1.25 8.65 1.25 7.511 1.403C6.339 1.561 5.39 1.893 4.641 2.641C3.893 3.39 3.561 4.339 3.403 5.511C3.25 6.651 3.25 8.106 3.25 9.944V13.056C3.25 14.894 3.25 16.35 3.403 17.489C3.561 18.661 3.893 19.61 4.641 20.359C5.101 20.818 5.635 21.12 6.25 21.322V22C6.25 22.414 6.586 22.75 7 22.75H8C8.19891 22.75 8.38968 22.671 8.53033 22.5303C8.67098 22.3897 8.75 22.1989 8.75 22V21.704C9.657 21.75 10.715 21.75 11.944 21.75H12.056C13.286 21.75 14.343 21.75 15.25 21.704V22C15.25 22.414 15.586 22.75 16 22.75H17C17.1989 22.75 17.3897 22.671 17.5303 22.5303C17.671 22.3897 17.75 22.1989 17.75 22V21.322C18.365 21.12 18.9 20.818 19.359 20.359C20.107 19.61 20.439 18.661 20.597 17.489C20.75 16.349 20.75 14.894 20.75 13.056V9.945C20.75 8.107 20.75 6.651 20.597 5.512C20.439 4.34 20.107 3.391 19.359 2.642C18.61 1.894 17.661 1.562 16.489 1.404C15.349 1.251 13.894 1.251 12.056 1.251M5.702 3.702C6.125 3.279 6.705 3.025 7.711 2.89C8.739 2.752 10.093 2.75 12 2.75C13.907 2.75 15.262 2.752 16.29 2.89C17.295 3.025 17.875 3.279 18.298 3.702C18.721 4.125 18.975 4.705 19.11 5.711C19.248 6.739 19.25 8.093 19.25 10V10.75H4.75V10C4.75 8.093 4.752 6.739 4.89 5.71C5.025 4.705 5.279 4.125 5.702 3.702ZM4.75 12.25H19.25V13C19.25 14.907 19.248 16.262 19.11 17.29C18.975 18.295 18.721 18.875 18.298 19.298C17.875 19.721 17.295 19.975 16.289 20.11C15.261 20.248 13.907 20.25 12 20.25C10.093 20.25 8.739 20.248 7.71 20.11C6.705 19.975 6.125 19.721 5.702 19.298C5.279 18.875 5.025 18.295 4.89 17.289C4.752 16.262 4.75 14.907 4.75 13V12.25Z" fill="black"/>
</svg>
