<svg width="512" height="512" viewBox="0 0 512 512" fill="none" xmlns="http://www.w3.org/2000/svg">
<g clip-path="url(#clip0_319_3)">
<mask id="path-1-outside-1_319_3" maskUnits="userSpaceOnUse" x="53.6577" y="54.5897" width="404" height="404" fill="black">
<rect fill="white" x="53.6577" y="54.5897" width="404" height="404"/>
<path d="M254.892 59.6089C257.631 59.6251 260.37 59.6089 263.109 59.5899C277.985 59.5718 292.251 61.3653 306.625 65.3125C307.407 65.5242 308.188 65.7358 308.993 65.9539C322.09 69.6027 334.222 74.7595 346.241 81.0801C347.769 81.879 349.309 82.6527 350.852 83.4219C365.209 90.7958 378.171 101.095 390 112C390.578 112.533 391.157 113.066 391.753 113.616C401.328 122.56 409.426 132.323 417 143C417.721 144.011 417.721 144.011 418.457 145.042C438.51 173.526 451.888 209.625 452.238 244.688C452.248 245.499 452.258 246.311 452.268 247.147C452.44 265.091 452.319 282.469 448 300C447.775 300.918 447.55 301.835 447.318 302.78C435.261 350.494 435.261 350.494 419.793 361.582C413.593 365.126 408.033 366.077 401 365C392.222 362.055 386.278 355.941 379.961 349.449C378.945 348.424 377.928 347.4 376.91 346.377C374.258 343.706 371.622 341.021 368.99 338.333C366.29 335.582 363.576 332.845 360.863 330.107C355.561 324.752 350.276 319.381 345 314C344.865 315.609 344.729 317.217 344.594 318.826C344.472 320.265 344.35 321.704 344.226 323.144C343.883 327.134 343.556 331.125 343.258 335.119C342.201 348.817 342.201 348.817 340.652 355.074C338.949 362.038 338.949 362.038 340 369C344.143 375.045 349.54 379.797 355.066 384.547C360.726 389.415 365.541 394.921 366.238 402.637C366.431 410.54 365.647 415.672 360.516 421.762C344.861 437.174 316.727 444.216 296 449C295.25 449.179 294.5 449.359 293.728 449.543C268.202 455.361 237.269 454.226 212 448C211.083 447.775 210.165 447.55 209.22 447.318C174.75 438.608 144.61 421.526 119 397C118.501 396.528 118.002 396.057 117.488 395.571C105.898 384.573 96.3425 372.341 88.041 358.702C87.0519 357.085 86.0345 355.485 85.0157 353.887C74.2575 336.265 67.5212 316.057 63 296C62.8236 295.257 62.6472 294.515 62.4654 293.75C56.6406 268.216 57.7714 237.279 64 212C64.225 211.083 64.4499 210.165 64.6817 209.22C69.3419 190.778 76.2828 163.49 91.4375 150.75C91.9931 150.27 92.5487 149.791 93.1211 149.297C98.9857 145.249 105.116 145.307 112 146C124.141 149.202 134.157 163.019 142.789 171.691C143.985 172.889 145.182 174.087 146.378 175.285C149.494 178.405 152.607 181.527 155.719 184.65C158.908 187.85 162.101 191.047 165.293 194.244C171.531 200.493 177.767 206.746 184 213C184.328 212.211 184.656 211.423 184.993 210.61C187.257 205.168 189.528 199.73 191.859 194.316C192.335 193.205 192.811 192.093 193.301 190.947C194.279 188.662 195.261 186.378 196.246 184.096C196.717 182.993 197.187 181.89 197.672 180.754C198.096 179.767 198.519 178.781 198.956 177.764C200.405 173.976 200.405 173.976 201 170C199.296 167.456 199.296 167.456 196.695 165.093C196.225 164.63 195.755 164.168 195.271 163.691C194.249 162.688 193.219 161.692 192.184 160.702C190.539 159.129 188.913 157.539 187.291 155.942C183.835 152.548 180.356 149.18 176.875 145.813C172.86 141.926 168.855 138.029 164.87 134.111C163.278 132.555 161.671 131.015 160.063 129.476C152.874 122.494 147.113 115.818 146.375 105.5C146.733 98.8366 149 93.242 153.551 88.3242C167.471 76.8729 187.795 70.5645 204.875 65.75C205.687 65.5159 206.498 65.2818 207.335 65.0405C222.959 60.8385 238.767 59.4963 254.892 59.6089ZM165 100C162.828 103.258 162.509 104.222 163 108C164.309 110.14 164.309 110.14 166.344 112.148C167.166 113.017 167.989 113.885 168.836 114.78C169.889 115.855 170.944 116.928 172 118C172.647 118.66 173.294 119.32 173.96 120C178.614 124.739 183.302 129.444 188.005 134.135C190.525 136.65 193.04 139.171 195.555 141.691C197.151 143.287 198.747 144.882 200.344 146.477C201.098 147.233 201.852 147.989 202.629 148.768C203.32 149.456 204.012 150.145 204.725 150.854C205.335 151.463 205.945 152.073 206.574 152.701C207.802 154.112 207.802 154.112 209 154C209.33 150.7 209.66 147.4 210 144C208.639 143.34 207.278 142.68 205.875 142C199.877 138.666 196.655 134.309 193.625 128.25C192.015 119.88 192.162 112.702 196.453 105.191C200.76 99.0904 205.842 96.0802 213 94C215.89 93.6055 218.73 93.5787 221.644 93.596C222.88 93.5857 222.88 93.5857 224.141 93.5752C226.841 93.557 229.542 93.5607 232.242 93.5664C234.135 93.5619 236.028 93.5565 237.92 93.5505C241.88 93.5416 245.838 93.544 249.797 93.554C254.85 93.5654 259.902 93.5452 264.954 93.516C268.861 93.4976 272.768 93.498 276.675 93.5037C278.537 93.5038 280.399 93.4979 282.26 93.4854C303.123 93.3655 303.123 93.3655 311.402 99.8945C317.882 107.99 319.998 114.607 319 125C317.767 131.064 314.643 135.934 310 140C307.383 141.599 304.829 142.781 302 144C303.361 156.23 306.924 166.843 312.313 177.875C314.714 182.963 316.034 186.416 315 192C313.563 194.063 313.563 194.063 311 195C307.948 194.926 305.003 194.533 302 194C301.638 192.811 301.638 192.811 301.27 191.598C300.288 188.817 299.235 186.231 298.012 183.559C297.446 182.309 297.446 182.309 296.869 181.033C296.105 179.356 295.33 177.683 294.541 176.018C290.104 166.085 288.652 157.137 286 146C266.2 146 246.4 146 226 146C224.35 152.93 222.7 159.86 221 167C219.648 170.714 218.358 174.097 216.688 177.625C215.899 179.385 215.112 181.146 214.324 182.906C213.934 183.761 213.544 184.616 213.142 185.496C196.029 221.988 196.029 221.988 189 261C233.22 261 277.44 261 323 261C320.539 248.693 318.198 237.49 314.205 225.814C312.453 220.431 311.347 216.512 313 211C316.695 208.537 318.633 208.61 323 209C325.769 211.117 326.65 213.267 327.648 216.551C328.07 217.923 328.07 217.923 328.499 219.323C328.788 220.31 329.077 221.296 329.375 222.313C329.68 223.337 329.984 224.362 330.298 225.417C334.808 240.881 338.186 256.471 340.422 272.422C340.581 273.542 340.581 273.542 340.744 274.686C341 277 341 277 341.053 279.518C341.211 284.117 341.629 287.108 344.807 290.552C345.443 291.243 346.079 291.933 346.734 292.645C351.419 297.514 356.17 302.313 360.953 307.086C362.102 308.235 363.251 309.385 364.399 310.535C366.791 312.928 369.185 315.32 371.58 317.71C374.649 320.774 377.713 323.841 380.776 326.91C383.141 329.278 385.507 331.644 387.875 334.008C389.006 335.139 390.137 336.271 391.267 337.403C392.841 338.98 394.419 340.554 395.997 342.126C396.893 343.022 397.789 343.917 398.712 344.839C401.656 347.62 403.213 348.941 407.313 349.25C412.176 347.601 413.123 345.524 415.473 341.105C415.977 340.081 416.481 339.056 417 338C417.556 336.924 418.111 335.847 418.684 334.738C436.877 297.907 441.469 253.946 432 214C431.823 213.238 431.647 212.476 431.465 211.691C420.39 165.668 388.56 125.51 348.75 100.77C334.45 92.224 319.053 85.4458 303 81C301.953 80.7049 301.953 80.7049 300.885 80.4038C257.679 68.5868 202.695 74.6458 165 100ZM209 114C207.25 117.5 208.026 121.302 209 125C212.43 128.61 215.297 129.927 220.282 130.14C221.656 130.153 223.031 130.159 224.406 130.161C225.157 130.166 225.909 130.171 226.683 130.176C229.17 130.191 231.657 130.198 234.145 130.203C235.875 130.209 237.605 130.215 239.335 130.22C242.964 130.231 246.593 130.237 250.222 130.24C254.866 130.246 259.509 130.27 264.153 130.298C267.728 130.317 271.303 130.322 274.877 130.324C276.589 130.327 278.301 130.335 280.012 130.348C282.41 130.365 284.808 130.363 287.206 130.356C288.261 130.37 288.261 130.37 289.337 130.384C294.8 130.338 298.857 129 302.875 125.25C304.545 121.91 304.509 119.688 304 116C301.976 112.526 299.89 110.297 296 109C293.431 108.884 290.889 108.822 288.319 108.807C287.538 108.799 286.757 108.791 285.953 108.782C283.368 108.758 280.784 108.741 278.199 108.727C276.874 108.719 276.874 108.719 275.522 108.71C270.847 108.684 266.172 108.664 261.496 108.65C257.629 108.637 253.762 108.609 249.895 108.568C245.223 108.519 240.551 108.494 235.879 108.487C234.101 108.48 232.322 108.465 230.544 108.441C228.052 108.409 225.561 108.409 223.069 108.417C222.338 108.4 221.607 108.384 220.854 108.367C215.156 108.436 212.852 110.103 209 114ZM99.2061 166.074C96.8911 169.771 94.974 173.615 93.125 177.563C92.693 178.482 92.261 179.402 91.816 180.349C82.4489 200.774 75.9426 223.346 75.7969 245.953C75.7898 246.687 75.7828 247.421 75.7755 248.177C75.3873 300.408 91.8891 346.458 128.434 384.43C162.171 418.668 209.321 436.604 257 437C287.72 437.007 323.501 429.02 348.785 410.707C350.186 408.963 350.186 408.963 350.656 406.305C349.636 401.168 346.242 398.604 342.5 395.125C341.785 394.437 341.069 393.748 340.332 393.039C338.567 391.345 336.79 389.667 335 388C333.712 389.933 332.45 391.884 331.223 393.855C323.612 405.595 314.508 412.647 301 417C296.433 417.925 291.993 418.154 287.349 418.161C286.607 418.166 285.864 418.171 285.1 418.176C282.657 418.191 280.216 418.198 277.773 418.203C276.933 418.206 276.093 418.209 275.228 418.212C270.779 418.227 266.33 418.236 261.881 418.24C257.316 418.246 252.75 418.27 248.185 418.298C244.648 418.317 241.112 418.322 237.575 418.324C235.894 418.327 234.212 418.335 232.531 418.348C216.542 418.465 204.151 416.028 190.75 406.75C186.88 402.88 183.923 398.613 181 394C180.393 393.043 180.393 393.043 179.773 392.066C173.744 381.365 173.227 367.339 171.875 355.312C171.789 354.568 171.704 353.823 171.616 353.056C170.316 341.715 169.257 330.417 169 319C168.94 317.13 168.94 317.13 168.879 315.223C168.439 290.164 171.346 264.336 177.869 240.123C178.772 236.666 179.201 234.377 178 231C176.831 229.376 176.831 229.376 175.301 227.899C174.727 227.313 174.154 226.727 173.563 226.124C172.931 225.493 172.299 224.862 171.648 224.212C170.984 223.538 170.321 222.865 169.637 222.171C167.439 219.944 165.23 217.729 163.02 215.516C161.488 213.975 159.957 212.433 158.426 210.892C155.214 207.662 151.996 204.438 148.774 201.218C144.644 197.088 140.535 192.938 136.43 188.782C133.274 185.593 130.105 182.417 126.931 179.245C125.41 177.72 123.894 176.191 122.382 174.656C120.269 172.513 118.137 170.39 115.999 168.271C115.377 167.632 114.755 166.993 114.114 166.334C111.24 163.522 109.775 162.128 105.723 161.458C102.444 162.111 101.159 163.406 99.2061 166.074ZM187 276C176.201 297.599 184.811 340.368 187.813 362.938C187.953 364.067 188.094 365.197 188.239 366.361C189.759 377.056 192.734 387.698 201.262 394.914C202.463 395.761 202.463 395.761 203.688 396.625C204.869 397.48 204.869 397.48 206.074 398.352C215.474 403.647 224.667 403.459 235.117 403.434C236.782 403.438 238.447 403.443 240.111 403.449C243.589 403.458 247.067 403.456 250.545 403.446C254.976 403.435 259.405 403.455 263.835 403.484C267.271 403.502 270.706 403.502 274.141 403.496C275.773 403.496 277.405 403.502 279.037 403.515C290.964 403.593 301.611 402.578 311.219 394.762C320.126 385.952 322.446 375.096 324.063 363.125C324.232 361.9 324.401 360.675 324.575 359.413C330.55 317.496 330.55 317.496 325 276C279.46 276 233.92 276 187 276Z"/>
</mask>
<path d="M254.892 59.6089C257.631 59.6251 260.37 59.6089 263.109 59.5899C277.985 59.5718 292.251 61.3653 306.625 65.3125C307.407 65.5242 308.188 65.7358 308.993 65.9539C322.09 69.6027 334.222 74.7595 346.241 81.0801C347.769 81.879 349.309 82.6527 350.852 83.4219C365.209 90.7958 378.171 101.095 390 112C390.578 112.533 391.157 113.066 391.753 113.616C401.328 122.56 409.426 132.323 417 143C417.721 144.011 417.721 144.011 418.457 145.042C438.51 173.526 451.888 209.625 452.238 244.688C452.248 245.499 452.258 246.311 452.268 247.147C452.44 265.091 452.319 282.469 448 300C447.775 300.918 447.55 301.835 447.318 302.78C435.261 350.494 435.261 350.494 419.793 361.582C413.593 365.126 408.033 366.077 401 365C392.222 362.055 386.278 355.941 379.961 349.449C378.945 348.424 377.928 347.4 376.91 346.377C374.258 343.706 371.622 341.021 368.99 338.333C366.29 335.582 363.576 332.845 360.863 330.107C355.561 324.752 350.276 319.381 345 314C344.865 315.609 344.729 317.217 344.594 318.826C344.472 320.265 344.35 321.704 344.226 323.144C343.883 327.134 343.556 331.125 343.258 335.119C342.201 348.817 342.201 348.817 340.652 355.074C338.949 362.038 338.949 362.038 340 369C344.143 375.045 349.54 379.797 355.066 384.547C360.726 389.415 365.541 394.921 366.238 402.637C366.431 410.54 365.647 415.672 360.516 421.762C344.861 437.174 316.727 444.216 296 449C295.25 449.179 294.5 449.359 293.728 449.543C268.202 455.361 237.269 454.226 212 448C211.083 447.775 210.165 447.55 209.22 447.318C174.75 438.608 144.61 421.526 119 397C118.501 396.528 118.002 396.057 117.488 395.571C105.898 384.573 96.3425 372.341 88.041 358.702C87.0519 357.085 86.0345 355.485 85.0157 353.887C74.2575 336.265 67.5212 316.057 63 296C62.8236 295.257 62.6472 294.515 62.4654 293.75C56.6406 268.216 57.7714 237.279 64 212C64.225 211.083 64.4499 210.165 64.6817 209.22C69.3419 190.778 76.2828 163.49 91.4375 150.75C91.9931 150.27 92.5487 149.791 93.1211 149.297C98.9857 145.249 105.116 145.307 112 146C124.141 149.202 134.157 163.019 142.789 171.691C143.985 172.889 145.182 174.087 146.378 175.285C149.494 178.405 152.607 181.527 155.719 184.65C158.908 187.85 162.101 191.047 165.293 194.244C171.531 200.493 177.767 206.746 184 213C184.328 212.211 184.656 211.423 184.993 210.61C187.257 205.168 189.528 199.73 191.859 194.316C192.335 193.205 192.811 192.093 193.301 190.947C194.279 188.662 195.261 186.378 196.246 184.096C196.717 182.993 197.187 181.89 197.672 180.754C198.096 179.767 198.519 178.781 198.956 177.764C200.405 173.976 200.405 173.976 201 170C199.296 167.456 199.296 167.456 196.695 165.093C196.225 164.63 195.755 164.168 195.271 163.691C194.249 162.688 193.219 161.692 192.184 160.702C190.539 159.129 188.913 157.539 187.291 155.942C183.835 152.548 180.356 149.18 176.875 145.813C172.86 141.926 168.855 138.029 164.87 134.111C163.278 132.555 161.671 131.015 160.063 129.476C152.874 122.494 147.113 115.818 146.375 105.5C146.733 98.8366 149 93.242 153.551 88.3242C167.471 76.8729 187.795 70.5645 204.875 65.75C205.687 65.5159 206.498 65.2818 207.335 65.0405C222.959 60.8385 238.767 59.4963 254.892 59.6089ZM165 100C162.828 103.258 162.509 104.222 163 108C164.309 110.14 164.309 110.14 166.344 112.148C167.166 113.017 167.989 113.885 168.836 114.78C169.889 115.855 170.944 116.928 172 118C172.647 118.66 173.294 119.32 173.96 120C178.614 124.739 183.302 129.444 188.005 134.135C190.525 136.65 193.04 139.171 195.555 141.691C197.151 143.287 198.747 144.882 200.344 146.477C201.098 147.233 201.852 147.989 202.629 148.768C203.32 149.456 204.012 150.145 204.725 150.854C205.335 151.463 205.945 152.073 206.574 152.701C207.802 154.112 207.802 154.112 209 154C209.33 150.7 209.66 147.4 210 144C208.639 143.34 207.278 142.68 205.875 142C199.877 138.666 196.655 134.309 193.625 128.25C192.015 119.88 192.162 112.702 196.453 105.191C200.76 99.0904 205.842 96.0802 213 94C215.89 93.6055 218.73 93.5787 221.644 93.596C222.88 93.5857 222.88 93.5857 224.141 93.5752C226.841 93.557 229.542 93.5607 232.242 93.5664C234.135 93.5619 236.028 93.5565 237.92 93.5505C241.88 93.5416 245.838 93.544 249.797 93.554C254.85 93.5654 259.902 93.5452 264.954 93.516C268.861 93.4976 272.768 93.498 276.675 93.5037C278.537 93.5038 280.399 93.4979 282.26 93.4854C303.123 93.3655 303.123 93.3655 311.402 99.8945C317.882 107.99 319.998 114.607 319 125C317.767 131.064 314.643 135.934 310 140C307.383 141.599 304.829 142.781 302 144C303.361 156.23 306.924 166.843 312.313 177.875C314.714 182.963 316.034 186.416 315 192C313.563 194.063 313.563 194.063 311 195C307.948 194.926 305.003 194.533 302 194C301.638 192.811 301.638 192.811 301.27 191.598C300.288 188.817 299.235 186.231 298.012 183.559C297.446 182.309 297.446 182.309 296.869 181.033C296.105 179.356 295.33 177.683 294.541 176.018C290.104 166.085 288.652 157.137 286 146C266.2 146 246.4 146 226 146C224.35 152.93 222.7 159.86 221 167C219.648 170.714 218.358 174.097 216.688 177.625C215.899 179.385 215.112 181.146 214.324 182.906C213.934 183.761 213.544 184.616 213.142 185.496C196.029 221.988 196.029 221.988 189 261C233.22 261 277.44 261 323 261C320.539 248.693 318.198 237.49 314.205 225.814C312.453 220.431 311.347 216.512 313 211C316.695 208.537 318.633 208.61 323 209C325.769 211.117 326.65 213.267 327.648 216.551C328.07 217.923 328.07 217.923 328.499 219.323C328.788 220.31 329.077 221.296 329.375 222.313C329.68 223.337 329.984 224.362 330.298 225.417C334.808 240.881 338.186 256.471 340.422 272.422C340.581 273.542 340.581 273.542 340.744 274.686C341 277 341 277 341.053 279.518C341.211 284.117 341.629 287.108 344.807 290.552C345.443 291.243 346.079 291.933 346.734 292.645C351.419 297.514 356.17 302.313 360.953 307.086C362.102 308.235 363.251 309.385 364.399 310.535C366.791 312.928 369.185 315.32 371.58 317.71C374.649 320.774 377.713 323.841 380.776 326.91C383.141 329.278 385.507 331.644 387.875 334.008C389.006 335.139 390.137 336.271 391.267 337.403C392.841 338.98 394.419 340.554 395.997 342.126C396.893 343.022 397.789 343.917 398.712 344.839C401.656 347.62 403.213 348.941 407.313 349.25C412.176 347.601 413.123 345.524 415.473 341.105C415.977 340.081 416.481 339.056 417 338C417.556 336.924 418.111 335.847 418.684 334.738C436.877 297.907 441.469 253.946 432 214C431.823 213.238 431.647 212.476 431.465 211.691C420.39 165.668 388.56 125.51 348.75 100.77C334.45 92.224 319.053 85.4458 303 81C301.953 80.7049 301.953 80.7049 300.885 80.4038C257.679 68.5868 202.695 74.6458 165 100ZM209 114C207.25 117.5 208.026 121.302 209 125C212.43 128.61 215.297 129.927 220.282 130.14C221.656 130.153 223.031 130.159 224.406 130.161C225.157 130.166 225.909 130.171 226.683 130.176C229.17 130.191 231.657 130.198 234.145 130.203C235.875 130.209 237.605 130.215 239.335 130.22C242.964 130.231 246.593 130.237 250.222 130.24C254.866 130.246 259.509 130.27 264.153 130.298C267.728 130.317 271.303 130.322 274.877 130.324C276.589 130.327 278.301 130.335 280.012 130.348C282.41 130.365 284.808 130.363 287.206 130.356C288.261 130.37 288.261 130.37 289.337 130.384C294.8 130.338 298.857 129 302.875 125.25C304.545 121.91 304.509 119.688 304 116C301.976 112.526 299.89 110.297 296 109C293.431 108.884 290.889 108.822 288.319 108.807C287.538 108.799 286.757 108.791 285.953 108.782C283.368 108.758 280.784 108.741 278.199 108.727C276.874 108.719 276.874 108.719 275.522 108.71C270.847 108.684 266.172 108.664 261.496 108.65C257.629 108.637 253.762 108.609 249.895 108.568C245.223 108.519 240.551 108.494 235.879 108.487C234.101 108.48 232.322 108.465 230.544 108.441C228.052 108.409 225.561 108.409 223.069 108.417C222.338 108.4 221.607 108.384 220.854 108.367C215.156 108.436 212.852 110.103 209 114ZM99.2061 166.074C96.8911 169.771 94.974 173.615 93.125 177.563C92.693 178.482 92.261 179.402 91.816 180.349C82.4489 200.774 75.9426 223.346 75.7969 245.953C75.7898 246.687 75.7828 247.421 75.7755 248.177C75.3873 300.408 91.8891 346.458 128.434 384.43C162.171 418.668 209.321 436.604 257 437C287.72 437.007 323.501 429.02 348.785 410.707C350.186 408.963 350.186 408.963 350.656 406.305C349.636 401.168 346.242 398.604 342.5 395.125C341.785 394.437 341.069 393.748 340.332 393.039C338.567 391.345 336.79 389.667 335 388C333.712 389.933 332.45 391.884 331.223 393.855C323.612 405.595 314.508 412.647 301 417C296.433 417.925 291.993 418.154 287.349 418.161C286.607 418.166 285.864 418.171 285.1 418.176C282.657 418.191 280.216 418.198 277.773 418.203C276.933 418.206 276.093 418.209 275.228 418.212C270.779 418.227 266.33 418.236 261.881 418.24C257.316 418.246 252.75 418.27 248.185 418.298C244.648 418.317 241.112 418.322 237.575 418.324C235.894 418.327 234.212 418.335 232.531 418.348C216.542 418.465 204.151 416.028 190.75 406.75C186.88 402.88 183.923 398.613 181 394C180.393 393.043 180.393 393.043 179.773 392.066C173.744 381.365 173.227 367.339 171.875 355.312C171.789 354.568 171.704 353.823 171.616 353.056C170.316 341.715 169.257 330.417 169 319C168.94 317.13 168.94 317.13 168.879 315.223C168.439 290.164 171.346 264.336 177.869 240.123C178.772 236.666 179.201 234.377 178 231C176.831 229.376 176.831 229.376 175.301 227.899C174.727 227.313 174.154 226.727 173.563 226.124C172.931 225.493 172.299 224.862 171.648 224.212C170.984 223.538 170.321 222.865 169.637 222.171C167.439 219.944 165.23 217.729 163.02 215.516C161.488 213.975 159.957 212.433 158.426 210.892C155.214 207.662 151.996 204.438 148.774 201.218C144.644 197.088 140.535 192.938 136.43 188.782C133.274 185.593 130.105 182.417 126.931 179.245C125.41 177.72 123.894 176.191 122.382 174.656C120.269 172.513 118.137 170.39 115.999 168.271C115.377 167.632 114.755 166.993 114.114 166.334C111.24 163.522 109.775 162.128 105.723 161.458C102.444 162.111 101.159 163.406 99.2061 166.074ZM187 276C176.201 297.599 184.811 340.368 187.813 362.938C187.953 364.067 188.094 365.197 188.239 366.361C189.759 377.056 192.734 387.698 201.262 394.914C202.463 395.761 202.463 395.761 203.688 396.625C204.869 397.48 204.869 397.48 206.074 398.352C215.474 403.647 224.667 403.459 235.117 403.434C236.782 403.438 238.447 403.443 240.111 403.449C243.589 403.458 247.067 403.456 250.545 403.446C254.976 403.435 259.405 403.455 263.835 403.484C267.271 403.502 270.706 403.502 274.141 403.496C275.773 403.496 277.405 403.502 279.037 403.515C290.964 403.593 301.611 402.578 311.219 394.762C320.126 385.952 322.446 375.096 324.063 363.125C324.232 361.9 324.401 360.675 324.575 359.413C330.55 317.496 330.55 317.496 325 276C279.46 276 233.92 276 187 276Z" fill="black"/>
<path d="M254.892 59.6089C257.631 59.6251 260.37 59.6089 263.109 59.5899C277.985 59.5718 292.251 61.3653 306.625 65.3125C307.407 65.5242 308.188 65.7358 308.993 65.9539C322.09 69.6027 334.222 74.7595 346.241 81.0801C347.769 81.879 349.309 82.6527 350.852 83.4219C365.209 90.7958 378.171 101.095 390 112C390.578 112.533 391.157 113.066 391.753 113.616C401.328 122.56 409.426 132.323 417 143C417.721 144.011 417.721 144.011 418.457 145.042C438.51 173.526 451.888 209.625 452.238 244.688C452.248 245.499 452.258 246.311 452.268 247.147C452.44 265.091 452.319 282.469 448 300C447.775 300.918 447.55 301.835 447.318 302.78C435.261 350.494 435.261 350.494 419.793 361.582C413.593 365.126 408.033 366.077 401 365C392.222 362.055 386.278 355.941 379.961 349.449C378.945 348.424 377.928 347.4 376.91 346.377C374.258 343.706 371.622 341.021 368.99 338.333C366.29 335.582 363.576 332.845 360.863 330.107C355.561 324.752 350.276 319.381 345 314C344.865 315.609 344.729 317.217 344.594 318.826C344.472 320.265 344.35 321.704 344.226 323.144C343.883 327.134 343.556 331.125 343.258 335.119C342.201 348.817 342.201 348.817 340.652 355.074C338.949 362.038 338.949 362.038 340 369C344.143 375.045 349.54 379.797 355.066 384.547C360.726 389.415 365.541 394.921 366.238 402.637C366.431 410.54 365.647 415.672 360.516 421.762C344.861 437.174 316.727 444.216 296 449C295.25 449.179 294.5 449.359 293.728 449.543C268.202 455.361 237.269 454.226 212 448C211.083 447.775 210.165 447.55 209.22 447.318C174.75 438.608 144.61 421.526 119 397C118.501 396.528 118.002 396.057 117.488 395.571C105.898 384.573 96.3425 372.341 88.041 358.702C87.0519 357.085 86.0345 355.485 85.0157 353.887C74.2575 336.265 67.5212 316.057 63 296C62.8236 295.257 62.6472 294.515 62.4654 293.75C56.6406 268.216 57.7714 237.279 64 212C64.225 211.083 64.4499 210.165 64.6817 209.22C69.3419 190.778 76.2828 163.49 91.4375 150.75C91.9931 150.27 92.5487 149.791 93.1211 149.297C98.9857 145.249 105.116 145.307 112 146C124.141 149.202 134.157 163.019 142.789 171.691C143.985 172.889 145.182 174.087 146.378 175.285C149.494 178.405 152.607 181.527 155.719 184.65C158.908 187.85 162.101 191.047 165.293 194.244C171.531 200.493 177.767 206.746 184 213C184.328 212.211 184.656 211.423 184.993 210.61C187.257 205.168 189.528 199.73 191.859 194.316C192.335 193.205 192.811 192.093 193.301 190.947C194.279 188.662 195.261 186.378 196.246 184.096C196.717 182.993 197.187 181.89 197.672 180.754C198.096 179.767 198.519 178.781 198.956 177.764C200.405 173.976 200.405 173.976 201 170C199.296 167.456 199.296 167.456 196.695 165.093C196.225 164.63 195.755 164.168 195.271 163.691C194.249 162.688 193.219 161.692 192.184 160.702C190.539 159.129 188.913 157.539 187.291 155.942C183.835 152.548 180.356 149.18 176.875 145.813C172.86 141.926 168.855 138.029 164.87 134.111C163.278 132.555 161.671 131.015 160.063 129.476C152.874 122.494 147.113 115.818 146.375 105.5C146.733 98.8366 149 93.242 153.551 88.3242C167.471 76.8729 187.795 70.5645 204.875 65.75C205.687 65.5159 206.498 65.2818 207.335 65.0405C222.959 60.8385 238.767 59.4963 254.892 59.6089ZM165 100C162.828 103.258 162.509 104.222 163 108C164.309 110.14 164.309 110.14 166.344 112.148C167.166 113.017 167.989 113.885 168.836 114.78C169.889 115.855 170.944 116.928 172 118C172.647 118.66 173.294 119.32 173.96 120C178.614 124.739 183.302 129.444 188.005 134.135C190.525 136.65 193.04 139.171 195.555 141.691C197.151 143.287 198.747 144.882 200.344 146.477C201.098 147.233 201.852 147.989 202.629 148.768C203.32 149.456 204.012 150.145 204.725 150.854C205.335 151.463 205.945 152.073 206.574 152.701C207.802 154.112 207.802 154.112 209 154C209.33 150.7 209.66 147.4 210 144C208.639 143.34 207.278 142.68 205.875 142C199.877 138.666 196.655 134.309 193.625 128.25C192.015 119.88 192.162 112.702 196.453 105.191C200.76 99.0904 205.842 96.0802 213 94C215.89 93.6055 218.73 93.5787 221.644 93.596C222.88 93.5857 222.88 93.5857 224.141 93.5752C226.841 93.557 229.542 93.5607 232.242 93.5664C234.135 93.5619 236.028 93.5565 237.92 93.5505C241.88 93.5416 245.838 93.544 249.797 93.554C254.85 93.5654 259.902 93.5452 264.954 93.516C268.861 93.4976 272.768 93.498 276.675 93.5037C278.537 93.5038 280.399 93.4979 282.26 93.4854C303.123 93.3655 303.123 93.3655 311.402 99.8945C317.882 107.99 319.998 114.607 319 125C317.767 131.064 314.643 135.934 310 140C307.383 141.599 304.829 142.781 302 144C303.361 156.23 306.924 166.843 312.313 177.875C314.714 182.963 316.034 186.416 315 192C313.563 194.063 313.563 194.063 311 195C307.948 194.926 305.003 194.533 302 194C301.638 192.811 301.638 192.811 301.27 191.598C300.288 188.817 299.235 186.231 298.012 183.559C297.446 182.309 297.446 182.309 296.869 181.033C296.105 179.356 295.33 177.683 294.541 176.018C290.104 166.085 288.652 157.137 286 146C266.2 146 246.4 146 226 146C224.35 152.93 222.7 159.86 221 167C219.648 170.714 218.358 174.097 216.688 177.625C215.899 179.385 215.112 181.146 214.324 182.906C213.934 183.761 213.544 184.616 213.142 185.496C196.029 221.988 196.029 221.988 189 261C233.22 261 277.44 261 323 261C320.539 248.693 318.198 237.49 314.205 225.814C312.453 220.431 311.347 216.512 313 211C316.695 208.537 318.633 208.61 323 209C325.769 211.117 326.65 213.267 327.648 216.551C328.07 217.923 328.07 217.923 328.499 219.323C328.788 220.31 329.077 221.296 329.375 222.313C329.68 223.337 329.984 224.362 330.298 225.417C334.808 240.881 338.186 256.471 340.422 272.422C340.581 273.542 340.581 273.542 340.744 274.686C341 277 341 277 341.053 279.518C341.211 284.117 341.629 287.108 344.807 290.552C345.443 291.243 346.079 291.933 346.734 292.645C351.419 297.514 356.17 302.313 360.953 307.086C362.102 308.235 363.251 309.385 364.399 310.535C366.791 312.928 369.185 315.32 371.58 317.71C374.649 320.774 377.713 323.841 380.776 326.91C383.141 329.278 385.507 331.644 387.875 334.008C389.006 335.139 390.137 336.271 391.267 337.403C392.841 338.98 394.419 340.554 395.997 342.126C396.893 343.022 397.789 343.917 398.712 344.839C401.656 347.62 403.213 348.941 407.313 349.25C412.176 347.601 413.123 345.524 415.473 341.105C415.977 340.081 416.481 339.056 417 338C417.556 336.924 418.111 335.847 418.684 334.738C436.877 297.907 441.469 253.946 432 214C431.823 213.238 431.647 212.476 431.465 211.691C420.39 165.668 388.56 125.51 348.75 100.77C334.45 92.224 319.053 85.4458 303 81C301.953 80.7049 301.953 80.7049 300.885 80.4038C257.679 68.5868 202.695 74.6458 165 100ZM209 114C207.25 117.5 208.026 121.302 209 125C212.43 128.61 215.297 129.927 220.282 130.14C221.656 130.153 223.031 130.159 224.406 130.161C225.157 130.166 225.909 130.171 226.683 130.176C229.17 130.191 231.657 130.198 234.145 130.203C235.875 130.209 237.605 130.215 239.335 130.22C242.964 130.231 246.593 130.237 250.222 130.24C254.866 130.246 259.509 130.27 264.153 130.298C267.728 130.317 271.303 130.322 274.877 130.324C276.589 130.327 278.301 130.335 280.012 130.348C282.41 130.365 284.808 130.363 287.206 130.356C288.261 130.37 288.261 130.37 289.337 130.384C294.8 130.338 298.857 129 302.875 125.25C304.545 121.91 304.509 119.688 304 116C301.976 112.526 299.89 110.297 296 109C293.431 108.884 290.889 108.822 288.319 108.807C287.538 108.799 286.757 108.791 285.953 108.782C283.368 108.758 280.784 108.741 278.199 108.727C276.874 108.719 276.874 108.719 275.522 108.71C270.847 108.684 266.172 108.664 261.496 108.65C257.629 108.637 253.762 108.609 249.895 108.568C245.223 108.519 240.551 108.494 235.879 108.487C234.101 108.48 232.322 108.465 230.544 108.441C228.052 108.409 225.561 108.409 223.069 108.417C222.338 108.4 221.607 108.384 220.854 108.367C215.156 108.436 212.852 110.103 209 114ZM99.2061 166.074C96.8911 169.771 94.974 173.615 93.125 177.563C92.693 178.482 92.261 179.402 91.816 180.349C82.4489 200.774 75.9426 223.346 75.7969 245.953C75.7898 246.687 75.7828 247.421 75.7755 248.177C75.3873 300.408 91.8891 346.458 128.434 384.43C162.171 418.668 209.321 436.604 257 437C287.72 437.007 323.501 429.02 348.785 410.707C350.186 408.963 350.186 408.963 350.656 406.305C349.636 401.168 346.242 398.604 342.5 395.125C341.785 394.437 341.069 393.748 340.332 393.039C338.567 391.345 336.79 389.667 335 388C333.712 389.933 332.45 391.884 331.223 393.855C323.612 405.595 314.508 412.647 301 417C296.433 417.925 291.993 418.154 287.349 418.161C286.607 418.166 285.864 418.171 285.1 418.176C282.657 418.191 280.216 418.198 277.773 418.203C276.933 418.206 276.093 418.209 275.228 418.212C270.779 418.227 266.33 418.236 261.881 418.24C257.316 418.246 252.75 418.27 248.185 418.298C244.648 418.317 241.112 418.322 237.575 418.324C235.894 418.327 234.212 418.335 232.531 418.348C216.542 418.465 204.151 416.028 190.75 406.75C186.88 402.88 183.923 398.613 181 394C180.393 393.043 180.393 393.043 179.773 392.066C173.744 381.365 173.227 367.339 171.875 355.312C171.789 354.568 171.704 353.823 171.616 353.056C170.316 341.715 169.257 330.417 169 319C168.94 317.13 168.94 317.13 168.879 315.223C168.439 290.164 171.346 264.336 177.869 240.123C178.772 236.666 179.201 234.377 178 231C176.831 229.376 176.831 229.376 175.301 227.899C174.727 227.313 174.154 226.727 173.563 226.124C172.931 225.493 172.299 224.862 171.648 224.212C170.984 223.538 170.321 222.865 169.637 222.171C167.439 219.944 165.23 217.729 163.02 215.516C161.488 213.975 159.957 212.433 158.426 210.892C155.214 207.662 151.996 204.438 148.774 201.218C144.644 197.088 140.535 192.938 136.43 188.782C133.274 185.593 130.105 182.417 126.931 179.245C125.41 177.72 123.894 176.191 122.382 174.656C120.269 172.513 118.137 170.39 115.999 168.271C115.377 167.632 114.755 166.993 114.114 166.334C111.24 163.522 109.775 162.128 105.723 161.458C102.444 162.111 101.159 163.406 99.2061 166.074ZM187 276C176.201 297.599 184.811 340.368 187.813 362.938C187.953 364.067 188.094 365.197 188.239 366.361C189.759 377.056 192.734 387.698 201.262 394.914C202.463 395.761 202.463 395.761 203.688 396.625C204.869 397.48 204.869 397.48 206.074 398.352C215.474 403.647 224.667 403.459 235.117 403.434C236.782 403.438 238.447 403.443 240.111 403.449C243.589 403.458 247.067 403.456 250.545 403.446C254.976 403.435 259.405 403.455 263.835 403.484C267.271 403.502 270.706 403.502 274.141 403.496C275.773 403.496 277.405 403.502 279.037 403.515C290.964 403.593 301.611 402.578 311.219 394.762C320.126 385.952 322.446 375.096 324.063 363.125C324.232 361.9 324.401 360.675 324.575 359.413C330.55 317.496 330.55 317.496 325 276C279.46 276 233.92 276 187 276Z" stroke="black" stroke-width="10" mask="url(#path-1-outside-1_319_3)"/>
<path d="M211.96 0.0543213C240.268 -5.48052 274.257 -5.36219 302.498 0.550415H302.499C303.474 0.749066 304.449 0.947309 305.453 1.15198L305.466 1.15491C354.904 11.4966 399.342 34.0459 435.736 69.2008L437.617 71.0153L437.622 71.0201C445.544 78.7044 453.194 86.5463 459.979 95.4733L461.242 97.11L461.245 97.1139C485.979 129.29 502.627 166.193 510.762 205.935L511.208 208.114L511.212 208.131L511.215 208.149C514.232 224.024 514.873 239.68 514.812 255.634C514.81 256.651 514.808 257.667 514.806 258.714V258.718C514.756 273.316 514.51 287.877 511.449 302.499C511.151 303.961 511.152 303.962 510.848 305.454L510.845 305.465C500.503 354.904 477.954 399.341 442.799 435.735C442.2 436.356 441.601 436.977 440.984 437.617L440.979 437.622C433.291 445.548 425.446 453.202 416.513 459.991L416.512 459.99C415.976 460.403 415.441 460.816 414.89 461.242L414.887 461.245C382.71 485.979 345.806 502.625 306.063 510.76L306.064 510.761C305.346 510.909 304.626 511.056 303.886 511.208L303.851 511.215C288.147 514.2 272.655 514.874 256.865 514.812V514.811C255.872 514.809 254.879 514.808 253.855 514.806H253.853C239.371 514.756 225 514.42 210.512 511.451V511.452C209.487 511.248 208.463 511.044 207.407 510.834L207.396 510.832C165.567 502.321 129.095 485.147 95.2793 459.356L92.9189 457.565C92.1303 456.969 91.3396 456.375 90.5479 455.779L90.5381 455.771C89.7381 455.163 88.9384 454.555 88.1143 453.928V453.929L86.0908 452.394L86.0205 452.34L85.9551 452.283C84.4311 450.948 83.2742 449.66 82.4775 448.06C81.6888 446.476 81.3526 444.785 81.1396 442.834L81.1104 442.567L81.1387 442.3C81.3141 440.634 81.4282 439.441 81.7549 438.395C82.1021 437.284 82.6729 436.387 83.3711 435.253L83.6777 434.754L84.1748 434.442C88.3407 431.838 92.1507 431.723 96.4668 432.544L96.8613 432.619L97.2119 432.813C100.287 434.518 102.716 436.759 105.018 438.865C118.44 450.413 133.351 459.527 149.157 467.784L149.167 467.789L149.177 467.795C149.823 468.139 150.47 468.484 151.136 468.839C171.459 479.572 194.463 486.137 217.217 490.154L219.418 490.535L219.439 490.539C220.474 490.723 220.474 490.723 221.529 490.912H221.528C264.803 498.499 310.754 490.742 351.025 473.698L351.028 473.697C351.763 473.387 352.498 473.076 353.255 472.756C377.941 462.145 401.619 446.309 420.398 427.066L420.42 427.045C420.422 427.043 420.424 427.041 420.426 427.04C420.428 427.038 420.429 427.036 420.431 427.034L420.659 426.805C420.661 426.804 420.663 426.802 420.665 426.8C420.667 426.799 420.668 426.796 420.67 426.795L420.697 426.767C420.699 426.765 420.701 426.764 420.703 426.762C420.705 426.761 420.706 426.758 420.708 426.756L420.735 426.729C420.737 426.727 420.739 426.726 420.741 426.724C420.743 426.722 420.744 426.72 420.746 426.718L420.773 426.691C420.775 426.689 420.778 426.688 420.779 426.686C420.781 426.684 420.782 426.682 420.784 426.68L420.812 426.653C420.813 426.651 420.816 426.65 420.817 426.648C420.819 426.646 420.82 426.644 420.822 426.642L420.85 426.615C420.851 426.613 420.854 426.612 420.855 426.61C420.857 426.608 420.859 426.606 420.86 426.604L421.029 426.435C421.031 426.433 421.033 426.432 421.035 426.43C421.037 426.429 421.038 426.426 421.04 426.424L421.133 426.332C421.135 426.33 421.137 426.329 421.139 426.327C421.14 426.325 421.142 426.323 421.144 426.321L421.422 426.043C421.424 426.041 421.426 426.04 421.428 426.038C421.43 426.036 421.431 426.034 421.433 426.032L421.597 425.868C421.598 425.866 421.601 425.865 421.603 425.863C421.604 425.861 421.606 425.859 421.607 425.857L421.624 425.84C421.626 425.839 421.628 425.837 421.63 425.836C421.632 425.834 421.633 425.831 421.635 425.83L421.651 425.813C421.653 425.811 421.655 425.81 421.657 425.808C421.659 425.806 421.66 425.804 421.662 425.802L421.805 425.66C421.806 425.658 421.809 425.657 421.811 425.655C421.812 425.653 421.814 425.651 421.815 425.649L421.947 425.517C421.949 425.515 421.951 425.514 421.953 425.512C421.955 425.511 421.956 425.508 421.958 425.506L422.123 425.341C422.125 425.34 422.127 425.338 422.129 425.337C422.131 425.335 422.132 425.332 422.134 425.331L422.184 425.281C422.185 425.279 422.188 425.278 422.189 425.276C422.191 425.274 422.193 425.272 422.194 425.27L422.244 425.22C422.246 425.219 422.248 425.217 422.25 425.215C422.252 425.214 422.253 425.211 422.255 425.21L422.321 425.143C422.323 425.141 422.325 425.14 422.327 425.138C422.329 425.137 422.33 425.134 422.332 425.132L422.465 425C422.467 424.998 422.469 424.997 422.471 424.995C422.472 424.993 422.474 424.991 422.476 424.989L422.481 424.983C422.483 424.981 422.486 424.98 422.487 424.978C422.489 424.976 422.49 424.974 422.492 424.972L422.614 424.85C422.616 424.848 422.618 424.847 422.62 424.845C422.622 424.844 422.623 424.841 422.625 424.839L422.631 424.834C422.633 424.832 422.635 424.831 422.637 424.829C422.639 424.827 422.64 424.825 422.642 424.823L422.842 424.623C422.844 424.621 422.846 424.62 422.848 424.618C422.849 424.616 422.851 424.614 422.853 424.612L422.897 424.567C422.899 424.565 422.902 424.564 422.903 424.562C422.905 424.56 422.906 424.558 422.908 424.556L422.992 424.472C422.994 424.471 422.996 424.469 422.998 424.467C423 424.466 423.001 424.463 423.003 424.462L423.031 424.433C423.033 424.431 423.035 424.43 423.037 424.428C423.039 424.427 423.04 424.424 423.042 424.422L423.07 424.394C423.072 424.392 423.074 424.391 423.076 424.389C423.078 424.387 423.079 424.385 423.081 424.383L423.193 424.271C423.195 424.269 423.197 424.268 423.199 424.266C423.201 424.264 423.202 424.262 423.204 424.26L423.965 423.5H425.367C425.405 423.413 425.448 423.317 425.496 423.207L425.541 423.104L425.595 423.007C427.087 420.291 428.665 418.697 430.705 416.821C460.847 387.323 479.279 345.35 488.372 304.519L488.373 304.518C488.566 303.654 488.758 302.789 488.957 301.899C492.115 286.9 492.909 272.133 492.875 256.693V256.69C492.874 255.725 492.873 254.759 492.872 253.765L492.861 252.018C492.501 215.359 484.223 179.605 466.869 147.185L466.868 147.184C466.126 145.797 465.393 144.406 464.667 143.012V143.011C455.023 124.511 442.865 107.014 427.913 92.5299L427.885 92.5026L427.858 92.4752C427.209 91.8062 426.671 91.2523 426.258 90.7916C425.85 90.3365 425.453 89.8542 425.15 89.3141C424.834 88.7492 424.671 88.1991 424.587 87.6852C424.477 87.6382 424.367 87.591 424.257 87.5436L424.14 87.4938L424.028 87.4313C421.103 85.8056 419.321 83.9443 417.32 81.7926C412.1 76.4649 406.368 71.9347 400.286 67.3473H400.285C399.136 66.4808 397.991 65.6076 396.85 64.7281C367.086 41.852 330.622 27.4353 293.603 21.4684L293.597 21.4674C292.306 21.2566 291.016 21.0449 289.687 20.8278C230.532 12.3898 166.335 26.7334 118.271 62.6637C117.688 63.1031 117.106 63.543 116.506 63.9957L116.5 64.0006L116.493 64.0045C115.895 64.45 115.297 64.8961 114.681 65.3551C105.876 71.9472 97.6987 79.1408 89.7334 86.8014L89.7275 86.8073C88.9906 87.5113 88.9901 87.5118 88.2383 88.2301C73.714 102.169 61.078 118.659 51.1777 136.227V136.228C50.7353 137.012 50.2916 137.796 49.8359 138.604L49.8369 138.605C37.7124 160.371 28.5831 183.181 23.4463 207.516L23.4443 207.523L23.4434 207.53C23.2362 208.485 23.0278 209.439 22.8145 210.422L22.8154 210.423C16.6338 240.217 16.8377 273.773 23.4404 303.457L23.4443 303.474C23.6362 304.366 23.8277 305.257 24.0254 306.175L24.4307 307.99C32.9534 345.461 50.2474 380.254 75.083 409.577L76.291 410.991L76.292 410.993C77.7797 412.724 79.1313 414.357 80.0645 416.243C81.0383 418.211 81.5 420.323 81.5 423V423.554L81.2656 424.057C80.2754 426.179 79.5855 427.709 78.6982 428.774C77.675 430.002 76.4339 430.578 75.1182 431.236L74.7217 431.434L74.2812 431.484C72.3288 431.705 70.4397 431.926 68.6094 431.65C66.6381 431.353 64.8982 430.523 63.0068 429.019L62.8086 428.862L62.6455 428.667C61.3956 427.173 61.3772 427.151 60.1387 425.671C59.6194 425.128 59.0994 424.584 58.5645 424.025L58.5586 424.018L58.5527 424.012C42.4133 406.896 30.6056 385.957 20.7393 365.068V365.067C20.4465 364.455 20.1532 363.843 19.8516 363.213L19.8486 363.205C3.93436 329.647 -2.95213 293.273 -2.8125 256.428C-2.81035 255.409 -2.80788 254.39 -2.80566 253.339V253.336C-2.75599 238.692 -2.45869 224.152 0.550781 209.497C0.748031 208.491 0.946187 207.486 1.14941 206.45L1.15039 206.441C10.8143 158.114 33.3205 113.203 67.8047 77.7565C69.6348 75.795 71.2526 73.6865 73.0459 71.4401L73.1533 71.3063L73.2773 71.1881C74.4677 70.0561 75.6935 68.9572 76.9541 67.8981C80.1601 65.1689 83.2531 62.3368 86.3516 59.4274L86.3652 59.4147L86.3799 59.401C120.214 28.6046 165.079 8.8515 209.518 0.546509C210.319 0.385036 211.12 0.223616 211.945 0.057251L211.953 0.0562744L211.96 0.0543213Z" fill="black" stroke="black" stroke-width="5"/>
<path d="M242.174 305L243.06 305.028L243.201 305.035L243.34 305.067C244.31 305.296 245.04 305.457 245.89 305.968C246.637 306.417 247.484 307.145 248.886 308.338C250.622 309.755 251.781 310.418 252.954 310.749C254.13 311.081 255.454 311.12 257.62 311.016C258.992 310.67 260.146 310 261.294 309.108C262.568 308.12 263.57 307.098 265.028 305.857L265.303 305.623L265.656 305.54C268.964 304.76 271.023 305.052 274.215 305.516L274.528 305.561L274.795 305.729C275.986 306.473 276.787 306.962 277.436 307.611C277.926 308.101 278.315 308.667 278.781 309.409L279.278 310.214L279.431 310.464L279.48 310.754C279.851 312.982 279.981 314.769 279.659 316.539C279.337 318.314 278.584 319.941 277.411 321.896L277.323 322.045L277.202 322.168C271.054 328.522 264.097 330.813 255.554 331.124L255.5 331.126L255.446 331.124C246.903 330.813 239.946 328.522 233.797 322.168L233.677 322.045L233.589 321.896C232.416 319.941 231.663 318.314 231.34 316.539C231.019 314.769 231.149 312.982 231.521 310.754L231.569 310.464L231.723 310.214C233.097 307.981 234.645 306.552 236.617 305.769C238.287 305.106 240.135 304.958 242.174 305Z" fill="black" stroke="black" stroke-width="3"/>
<path d="M300.659 294.829C301.764 294.52 302.931 294.602 304.58 294.69L304.711 294.697L304.839 294.726C306.539 295.121 307.865 295.428 309.007 296.055C310.208 296.716 311.106 297.666 312.192 299.09L312.399 299.361L312.469 299.695C313.155 302.997 313.01 306.344 313 309.421L313.085 311.992L313.086 312.014V312.037C313.095 315.062 313.119 316.928 312.669 318.393C312.184 319.971 311.172 321.037 309.769 322.577L309.597 322.766L309.372 322.887C307.687 323.795 306.262 324.395 304.722 324.651C303.18 324.907 301.639 324.801 299.748 324.479L299.374 324.415L299.074 324.18C297.614 323.036 296.52 322.045 295.646 320.834C294.769 319.618 294.174 318.264 293.577 316.474L293.517 316.293L293.504 316.103C293.356 313.953 293.28 311.803 293.25 309.66L293.172 306.261L293.17 306.167L293.18 306.075C293.371 304.196 293.687 302.698 294.277 301.267C294.865 299.844 295.692 298.565 296.804 297.095L296.957 296.893L297.168 296.751C298.582 295.809 299.562 295.135 300.659 294.829Z" fill="black" stroke="black" stroke-width="3"/>
<path d="M206.659 294.829C207.764 294.52 208.931 294.602 210.58 294.69L210.711 294.697L210.839 294.726C212.539 295.121 213.865 295.428 215.007 296.055C216.208 296.716 217.106 297.666 218.192 299.09L218.399 299.361L218.469 299.695C219.155 302.997 219.01 306.344 219 309.421L219.085 311.992L219.086 312.014V312.037C219.095 315.062 219.119 316.928 218.669 318.393C218.184 319.971 217.172 321.037 215.769 322.577L215.597 322.766L215.372 322.887C213.687 323.795 212.262 324.395 210.722 324.651C209.18 324.907 207.639 324.801 205.748 324.479L205.374 324.415L205.074 324.18C203.614 323.036 202.52 322.045 201.646 320.834C200.769 319.618 200.174 318.264 199.577 316.474L199.517 316.293L199.504 316.103C199.356 313.953 199.28 311.803 199.25 309.66L199.172 306.261L199.17 306.167L199.18 306.075C199.371 304.196 199.687 302.698 200.277 301.267C200.865 299.844 201.692 298.565 202.804 297.095L202.957 296.893L203.168 296.751C204.582 295.809 205.562 295.135 206.659 294.829Z" fill="black" stroke="black" stroke-width="3"/>
</g>
<defs>
<clipPath id="clip0_319_3">
<rect width="512" height="512" fill="white"/>
</clipPath>
</defs>
</svg>
