<svg xmlns="http://www.w3.org/2000/svg" xmlns:xlink="http://www.w3.org/1999/xlink" width="1920" zoomAndPan="magnify" viewBox="0 0 1440 809.999993" height="1080" preserveAspectRatio="xMidYMid meet" version="1.0"><defs><clipPath id="0e674b4fed"><path d="M 597.0625 369 L 842.898438 369 L 842.898438 464.664062 L 597.0625 464.664062 Z M 597.0625 369 " clip-rule="nonzero"/></clipPath><clipPath id="0515e80304"><path d="M 729 345.191406 L 750 345.191406 L 750 397 L 729 397 Z M 729 345.191406 " clip-rule="nonzero"/></clipPath><clipPath id="06a9479039"><path d="M 757 345.191406 L 778 345.191406 L 778 397 L 757 397 Z M 757 345.191406 " clip-rule="nonzero"/></clipPath><clipPath id="35194a5742"><path d="M 786 345.191406 L 806 345.191406 L 806 397 L 786 397 Z M 786 345.191406 " clip-rule="nonzero"/></clipPath></defs><rect x="-144" width="1728" fill="#ffffff" y="-80.999999" height="971.999992" fill-opacity="1"/><g clip-path="url(#0e674b4fed)"><path fill="#ffffff" d="M 694.355469 415.480469 L 672.246094 406.011719 C 672.246094 403.988281 671.867188 401.964844 671.09375 400.03125 C 669.515625 396.089844 666.515625 392.988281 662.632812 391.285156 L 620.175781 371.003906 L 619.941406 370.898438 C 617.921875 370.035156 615.796875 369.597656 613.613281 369.597656 C 607.171875 369.597656 601.367188 373.425781 598.835938 379.34375 C 597.144531 383.289062 597.089844 387.660156 598.6875 391.644531 C 600.265625 395.589844 603.265625 398.6875 607.148438 400.390625 L 649.605469 420.671875 L 649.84375 420.78125 C 651.855469 421.644531 653.984375 422.082031 656.164062 422.082031 C 660.382812 422.082031 664.308594 420.417969 667.238281 417.625 L 690.210938 427.464844 C 692.996094 448.386719 710.914062 464.597656 732.585938 464.597656 L 800.148438 464.597656 C 823.742188 464.597656 842.9375 445.402344 842.9375 421.804688 L 842.9375 415.480469 Z M 659.320312 407.355469 C 658.609375 409.011719 656.613281 409.867188 654.910156 409.191406 L 612.496094 388.933594 L 612.257812 388.824219 C 611.417969 388.464844 610.765625 387.796875 610.425781 386.945312 C 610.085938 386.097656 610.097656 385.164062 610.457031 384.324219 C 611.164062 382.664062 613.164062 381.804688 614.867188 382.484375 L 657.28125 402.742188 L 657.515625 402.851562 C 658.355469 403.210938 659.007812 403.878906 659.351562 404.730469 C 659.691406 405.582031 659.679688 406.511719 659.320312 407.355469 Z M 800.148438 451.953125 L 732.585938 451.953125 C 718.132812 451.953125 706.019531 441.726562 703.105469 428.128906 L 829.625 428.128906 C 826.710938 441.726562 814.601562 451.953125 800.148438 451.953125 Z M 800.148438 451.953125 " fill-opacity="1" fill-rule="nonzero"/></g><g clip-path="url(#0515e80304)"><path fill="#ffffff" d="M 733.519531 396.472656 C 737.421875 396.472656 741.320312 396.472656 745.21875 396.472656 C 759.265625 379.40625 731.179688 362.34375 745.21875 345.277344 C 741.320312 345.277344 737.421875 345.277344 733.519531 345.277344 C 719.476562 362.34375 747.566406 379.410156 733.519531 396.472656 Z M 733.519531 396.472656 " fill-opacity="1" fill-rule="nonzero"/></g><g clip-path="url(#06a9479039)"><path fill="#ffffff" d="M 761.816406 396.472656 C 765.722656 396.472656 769.621094 396.472656 773.523438 396.472656 C 787.566406 379.40625 759.476562 362.34375 773.523438 345.277344 C 769.621094 345.277344 765.722656 345.277344 761.816406 345.277344 C 747.773438 362.34375 775.863281 379.410156 761.816406 396.472656 Z M 761.816406 396.472656 " fill-opacity="1" fill-rule="nonzero"/></g><g clip-path="url(#35194a5742)"><path fill="#ffffff" d="M 790.121094 396.472656 C 794.023438 396.472656 797.917969 396.472656 801.824219 396.472656 C 815.867188 379.40625 787.777344 362.34375 801.824219 345.277344 C 797.917969 345.277344 794.023438 345.277344 790.121094 345.277344 C 776.074219 362.34375 804.164062 379.410156 790.121094 396.472656 Z M 790.121094 396.472656 " fill-opacity="1" fill-rule="nonzero"/></g></svg>