<svg xmlns="http://www.w3.org/2000/svg" xmlns:xlink="http://www.w3.org/1999/xlink" width="40" zoomAndPan="magnify" viewBox="0 0 30 30.000001" height="40" preserveAspectRatio="xMidYMid meet" version="1.0"><defs><clipPath id="e8a0fbaccf"><path d="M 0.484375 10 L 29.515625 10 L 29.515625 21.246094 L 0.484375 21.246094 Z M 0.484375 10 " clip-rule="nonzero"/></clipPath><clipPath id="b5e8dcc195"><path d="M 16 7.457031 L 19 7.457031 L 19 14 L 16 14 Z M 16 7.457031 " clip-rule="nonzero"/></clipPath><clipPath id="90ccb0aab7"><path d="M 19 7.457031 L 22 7.457031 L 22 14 L 19 14 Z M 19 7.457031 " clip-rule="nonzero"/></clipPath><clipPath id="036d0069a8"><path d="M 22 7.457031 L 26 7.457031 L 26 14 L 22 14 Z M 22 7.457031 " clip-rule="nonzero"/></clipPath></defs><g clip-path="url(#e8a0fbaccf)"><path fill="#ffffff" d="M 11.976562 15.757812 L 9.367188 14.636719 C 9.367188 14.398438 9.320312 14.160156 9.230469 13.933594 C 9.042969 13.464844 8.6875 13.101562 8.230469 12.898438 L 3.214844 10.503906 L 3.1875 10.492188 C 2.949219 10.386719 2.695312 10.335938 2.4375 10.335938 C 1.679688 10.335938 0.992188 10.789062 0.691406 11.488281 C 0.492188 11.953125 0.488281 12.46875 0.675781 12.941406 C 0.863281 13.40625 1.21875 13.773438 1.675781 13.972656 L 6.691406 16.371094 L 6.71875 16.382812 C 6.957031 16.484375 7.207031 16.535156 7.464844 16.535156 C 7.964844 16.535156 8.429688 16.339844 8.773438 16.011719 L 11.488281 17.171875 C 11.816406 19.644531 13.933594 21.558594 16.496094 21.558594 L 24.476562 21.558594 C 27.261719 21.558594 29.53125 19.292969 29.53125 16.503906 L 29.53125 15.757812 Z M 7.839844 14.796875 C 7.753906 14.992188 7.519531 15.09375 7.316406 15.015625 L 2.308594 12.621094 L 2.277344 12.609375 C 2.179688 12.566406 2.101562 12.488281 2.0625 12.386719 C 2.023438 12.285156 2.023438 12.175781 2.066406 12.078125 C 2.148438 11.878906 2.386719 11.777344 2.585938 11.859375 L 7.597656 14.253906 L 7.625 14.265625 C 7.726562 14.308594 7.800781 14.386719 7.84375 14.488281 C 7.882812 14.585938 7.882812 14.699219 7.839844 14.796875 Z M 24.476562 20.066406 L 16.496094 20.066406 C 14.785156 20.066406 13.355469 18.859375 13.011719 17.25 L 27.957031 17.25 C 27.613281 18.859375 26.183594 20.066406 24.476562 20.066406 Z M 24.476562 20.066406 " fill-opacity="1" fill-rule="nonzero"/></g><g clip-path="url(#b5e8dcc195)"><path fill="#ffffff" d="M 16.605469 13.511719 C 17.066406 13.511719 17.527344 13.511719 17.988281 13.511719 C 19.644531 11.496094 16.328125 9.480469 17.988281 7.464844 C 17.527344 7.464844 17.066406 7.464844 16.605469 7.464844 C 14.945312 9.480469 18.265625 11.496094 16.605469 13.511719 Z M 16.605469 13.511719 " fill-opacity="1" fill-rule="nonzero"/></g><g clip-path="url(#90ccb0aab7)"><path fill="#ffffff" d="M 19.949219 13.511719 C 20.410156 13.511719 20.871094 13.511719 21.332031 13.511719 C 22.988281 11.496094 19.671875 9.480469 21.332031 7.464844 C 20.871094 7.464844 20.410156 7.464844 19.949219 7.464844 C 18.289062 9.480469 21.605469 11.496094 19.949219 13.511719 Z M 19.949219 13.511719 " fill-opacity="1" fill-rule="nonzero"/></g><g clip-path="url(#036d0069a8)"><path fill="#ffffff" d="M 23.289062 13.511719 C 23.753906 13.511719 24.210938 13.511719 24.671875 13.511719 C 26.332031 11.496094 23.015625 9.480469 24.671875 7.464844 C 24.210938 7.464844 23.753906 7.464844 23.289062 7.464844 C 21.632812 9.480469 24.949219 11.496094 23.289062 13.511719 Z M 23.289062 13.511719 " fill-opacity="1" fill-rule="nonzero"/></g></svg>