<svg width="24" height="24" viewBox="0 0 24 24" fill="none" xmlns="http://www.w3.org/2000/svg">
<path d="M5.22749 23.0625H18.7725C19.08 23.0625 19.335 22.8075 19.335 22.5V2.9175C19.335 2.61 19.08 2.355 18.7725 2.355H16.8525V1.5C16.8525 1.1925 16.5975 0.9375 16.29 0.9375C15.9825 0.9375 15.7275 1.1925 15.7275 1.5V2.355H12.5625V1.5C12.5625 1.1925 12.3075 0.9375 12 0.9375C11.6925 0.9375 11.4375 1.1925 11.4375 1.5V2.355H8.27249V1.5C8.27249 1.1925 8.01749 0.9375 7.70999 0.9375C7.40249 0.9375 7.14749 1.1925 7.14749 1.5V2.355H5.22749C4.91999 2.355 4.66499 2.61 4.66499 2.9175V22.5C4.66499 22.8075 4.91999 23.0625 5.22749 23.0625ZM5.78999 3.48H7.14749V4.335C7.14749 4.6425 7.40249 4.8975 7.70999 4.8975C8.01749 4.8975 8.27249 4.6425 8.27249 4.335V3.48H11.4375V4.335C11.4375 4.6425 11.6925 4.8975 12 4.8975C12.3075 4.8975 12.5625 4.6425 12.5625 4.335V3.48H15.7275V4.335C15.7275 4.6425 15.9825 4.8975 16.29 4.8975C16.5975 4.8975 16.8525 4.6425 16.8525 4.335V3.48H18.21V21.9375H5.78999V3.48Z" fill="black"/>
<path d="M12.645 7.245H7.7175C7.41 7.245 7.155 7.5 7.155 7.8075C7.155 8.115 7.41 8.37 7.7175 8.37H12.645C12.9525 8.37 13.2075 8.115 13.2075 7.8075C13.2075 7.5 12.9525 7.245 12.645 7.245Z" fill="black"/>
<path d="M12.645 12.1425H7.7175C7.41 12.1425 7.155 12.3975 7.155 12.705C7.155 13.0125 7.41 13.2675 7.7175 13.2675H12.645C12.9525 13.2675 13.2075 13.0125 13.2075 12.705C13.2075 12.3975 12.9525 12.1425 12.645 12.1425Z" fill="black"/>
<path d="M12.645 17.0475H7.7175C7.41 17.0475 7.155 17.3025 7.155 17.61C7.155 17.9175 7.41 18.1725 7.7175 18.1725H12.645C12.9525 18.1725 13.2075 17.9175 13.2075 17.61C13.2075 17.3025 12.9525 17.0475 12.645 17.0475Z" fill="black"/>
<path d="M7.71001 10.7025H10.4175C10.725 10.7025 10.98 10.4475 10.98 10.14C10.98 9.83251 10.725 9.57751 10.4175 9.57751H7.71001C7.40251 9.57751 7.14751 9.83251 7.14751 10.14C7.14751 10.4475 7.40251 10.7025 7.71001 10.7025Z" fill="black"/>
<path d="M7.71001 15.75H10.4175C10.725 15.75 10.98 15.495 10.98 15.1875C10.98 14.88 10.725 14.625 10.4175 14.625H7.71001C7.40251 14.625 7.14751 14.88 7.14751 15.1875C7.14751 15.495 7.40251 15.75 7.71001 15.75Z" fill="black"/>
<path d="M10.4175 19.3425H7.71001C7.40251 19.3425 7.14751 19.5975 7.14751 19.905C7.14751 20.2125 7.40251 20.4675 7.71001 20.4675H10.4175C10.725 20.4675 10.98 20.2125 10.98 19.905C10.98 19.5975 10.725 19.3425 10.4175 19.3425Z" fill="black"/>
</svg>
